<?xml version="1.0" encoding="UTF-8"?>
<svg version="1.1" xmlns="http://www.w3.org/2000/svg" width="1080" height="1080">
<path d="M0 0 C0.86334961 0.38913574 1.72669922 0.77827148 2.61621094 1.17919922 C29.41161903 13.34126525 54.94773349 28.66584847 78 47 C78.91072266 47.72002197 78.91072266 47.72002197 79.83984375 48.45458984 C87.90791751 54.84967853 95.73650147 61.41906092 103.26171875 68.4453125 C105.87021925 70.87892067 108.51990864 73.25653947 111.1875 75.625 C117.93379642 81.69017996 124.3006093 88.03500031 130.203125 94.92578125 C132.1746243 97.20157718 134.21134395 99.40922667 136.25 101.625 C155.29226533 122.79022059 171.32945695 146.96900258 184.88476562 171.95019531 C185.64286029 173.34357595 186.40743321 174.73344735 187.17773438 176.12011719 C213.56232417 223.6421199 229.0240625 278.93201166 233 333 C233.08459473 334.07072754 233.08459473 334.07072754 233.17089844 335.16308594 C238.30445478 401.77781404 225.53058907 469.26571334 198 530 C197.41629639 531.29502441 197.41629639 531.29502441 196.82080078 532.61621094 C184.65873475 559.41161903 169.33415153 584.94773349 151 608 C150.51998535 608.60714844 150.0399707 609.21429687 149.54541016 609.83984375 C143.15032147 617.90791751 136.58093908 625.73650147 129.5546875 633.26171875 C127.12107933 635.87021925 124.74346053 638.51990864 122.375 641.1875 C116.30982004 647.93379642 109.96499969 654.3006093 103.07421875 660.203125 C100.79842282 662.1746243 98.59077333 664.21134395 96.375 666.25 C75.20977941 685.29226533 51.03099742 701.32945695 26.04980469 714.88476562 C24.65642405 715.64286029 23.26655265 716.40743321 21.87988281 717.17773438 C-25.6421199 743.56232417 -80.93201166 759.0240625 -135 763 C-136.07072754 763.08459473 -136.07072754 763.08459473 -137.16308594 763.17089844 C-203.77781404 768.30445478 -271.26571334 755.53058907 -332 728 C-332.86334961 727.61086426 -333.72669922 727.22172852 -334.61621094 726.82080078 C-361.41161903 714.65873475 -386.94773349 699.33415153 -410 681 C-410.60714844 680.51998535 -411.21429688 680.0399707 -411.83984375 679.54541016 C-419.90791751 673.15032147 -427.73650147 666.58093908 -435.26171875 659.5546875 C-437.87021925 657.12107933 -440.51990864 654.74346053 -443.1875 652.375 C-449.93379642 646.30982004 -456.3006093 639.96499969 -462.203125 633.07421875 C-464.1746243 630.79842282 -466.21134395 628.59077333 -468.25 626.375 C-487.29226533 605.20977941 -503.32945695 581.03099742 -516.88476562 556.04980469 C-517.64286029 554.65642405 -518.40743321 553.26655265 -519.17773438 551.87988281 C-545.56232417 504.3578801 -561.0240625 449.06798834 -565 395 C-565.08459473 393.92927246 -565.08459473 393.92927246 -565.17089844 392.83691406 C-570.30445478 326.22218596 -557.53058907 258.73428666 -530 198 C-529.61086426 197.13665039 -529.22172852 196.27330078 -528.82080078 195.38378906 C-516.65873475 168.58838097 -501.33415153 143.05226651 -483 120 C-482.27997803 119.08927734 -482.27997803 119.08927734 -481.54541016 118.16015625 C-475.15032147 110.09208249 -468.58093908 102.26349853 -461.5546875 94.73828125 C-459.12107933 92.12978075 -456.74346053 89.48009136 -454.375 86.8125 C-448.30982004 80.06620358 -441.96499969 73.6993907 -435.07421875 67.796875 C-432.79842282 65.8253757 -430.59077333 63.78865605 -428.375 61.75 C-407.20977941 42.70773467 -383.03099742 26.67054305 -358.04980469 13.11523438 C-356.65642405 12.35713971 -355.26655265 11.59256679 -353.87988281 10.82226562 C-306.3578801 -15.56232417 -251.06798834 -31.0240625 -197 -35 C-195.92927246 -35.08459473 -195.92927246 -35.08459473 -194.83691406 -35.17089844 C-128.22218596 -40.30445478 -60.73428666 -27.53058907 0 0 Z " fill="#1D1D20" transform="translate(706,176)"/>
<path d="M0 0 C0 210.54 0 421.08 0 638 C-9.91893994 638 -19.33204198 637.81544377 -29.125 636.75 C-30.38344727 636.61432617 -31.64189453 636.47865234 -32.93847656 636.33886719 C-97.15086444 629.09514734 -158.24123491 600.31051424 -206 557 C-206.88606934 556.19852539 -206.88606934 556.19852539 -207.79003906 555.38085938 C-216.67691882 547.31783188 -225.19376207 539.12258393 -233 530 C-233.80179687 529.08734375 -234.60359375 528.1746875 -235.4296875 527.234375 C-274.66128659 482.22425356 -299.37409183 425.66991032 -309 367 C-309.17789063 365.92202148 -309.35578125 364.84404297 -309.5390625 363.73339844 C-314.32602029 333.12156323 -313.73992976 300.25775424 -308.6875 269.75 C-308.51885437 268.72437958 -308.51885437 268.72437958 -308.34680176 267.67803955 C-306.63962223 257.34306517 -304.86941293 247.0893563 -302 237 C-301.70641602 235.96230469 -301.41283203 234.92460937 -301.11035156 233.85546875 C-296.26441222 216.98615812 -290.52467864 200.85859741 -283 185 C-282.47623779 183.89011719 -282.47623779 183.89011719 -281.94189453 182.7578125 C-274.73535562 167.62021197 -266.73470038 152.66475679 -257 139 C-256.49984375 138.29762207 -255.9996875 137.59524414 -255.484375 136.87158203 C-247.80112345 126.13432775 -239.78080183 115.85744934 -231 106 C-230.22140625 105.11054688 -229.4428125 104.22109375 -228.640625 103.3046875 C-220.66279905 94.28012552 -212.19508769 85.78298494 -203 78 C-202.0925 77.20335937 -201.185 76.40671875 -200.25 75.5859375 C-170.68413661 49.79524691 -135.72832597 30.47654338 -99 17 C-98.26362305 16.72865234 -97.52724609 16.45730469 -96.76855469 16.17773438 C-65.76475906 4.91742289 -32.87319132 0 0 0 Z " fill="#F1EBCD" transform="translate(525,221)"/>
<path d="M0 0 C0 220.44 0 440.88 0 668 C-73.39735893 668 -141.99893356 649.49773668 -202 606 C-202.68320312 605.50612793 -203.36640625 605.01225586 -204.0703125 604.50341797 C-211.54733663 599.06981487 -218.83242096 593.55029309 -225.59375 587.23046875 C-227.57228207 585.3964723 -229.58298718 583.63579252 -231.62890625 581.87890625 C-236.77933164 577.38533106 -241.6042438 572.57977152 -246.4375 567.75 C-247.32759766 566.87214844 -248.21769531 565.99429688 -249.13476562 565.08984375 C-255.19669141 559.04120195 -260.67709869 552.7027686 -266 546 C-267.04830911 544.72192661 -268.09878492 543.44562434 -269.15234375 542.171875 C-276.00563175 533.78845038 -282.19335869 525.13662387 -288 516 C-288.67546875 514.94425781 -289.3509375 513.88851562 -290.046875 512.80078125 C-292.07923141 509.56120513 -294.05905477 506.29482001 -296 503 C-296.37592285 502.36320312 -296.7518457 501.72640625 -297.13916016 501.0703125 C-307.56831231 483.24299387 -316.11489268 464.46280336 -323 445 C-323.35320312 444.08089844 -323.70640625 443.16179687 -324.0703125 442.21484375 C-331.59223331 422.5808536 -335.31235855 401.66723981 -338.75 381 C-338.86553223 380.33299072 -338.98106445 379.66598145 -339.10009766 378.97875977 C-344.36489147 345.58047364 -343.20290242 308.1391844 -337 275 C-336.79101074 273.86626953 -336.58202148 272.73253906 -336.36669922 271.56445312 C-326.34353194 218.91842392 -303.67144743 168.75352916 -270 127 C-269.21238281 126.00097656 -268.42476563 125.00195312 -267.61328125 123.97265625 C-253.42458431 106.21768001 -237.07357364 88.80067297 -219 75 C-217.89257553 74.11703065 -216.78723627 73.23144196 -215.68359375 72.34375 C-177.82483805 41.9937787 -134.0426352 20.68982522 -87 9 C-86.20029785 8.80035645 -85.4005957 8.60071289 -84.57666016 8.39501953 C-56.33842087 1.40769158 -29.48198256 0 0 0 Z M-41.375 15.8125 C-42.35976318 15.90233154 -43.34452637 15.99216309 -44.35913086 16.0847168 C-52.26170073 16.84832148 -60.03026289 17.94548245 -67.80517578 19.54931641 C-69.31189921 19.85870589 -70.82086808 20.15729724 -72.33154297 20.44677734 C-98.96380474 25.57756844 -124.79008731 34.86593982 -149 47 C-149.84159668 47.41604492 -150.68319336 47.83208984 -151.55029297 48.26074219 C-176.9013018 60.8637866 -200.03653949 77.00388869 -221 96 C-221.57476074 96.51836426 -222.14952148 97.03672852 -222.74169922 97.57080078 C-233.62801552 107.41444922 -243.86118492 117.48036093 -253 129 C-253.96996303 130.19253909 -254.94139269 131.38388635 -255.9140625 132.57421875 C-276.37196266 157.69749821 -293.02412912 185.89551723 -305 216 C-305.31952637 216.79760742 -305.63905273 217.59521484 -305.96826172 218.41699219 C-310.96527882 231.02316287 -314.65555609 243.86921421 -318 257 C-318.19190918 257.72864258 -318.38381836 258.45728516 -318.58154297 259.20800781 C-321.01898289 268.46807369 -322.70852395 277.79046381 -324.1875 287.25 C-324.35459473 288.31508789 -324.52168945 289.38017578 -324.69384766 290.47753906 C-329.14438161 320.16915489 -328.97349388 352.39446837 -324 382 C-323.67733154 383.93020996 -323.67733154 383.93020996 -323.34814453 385.89941406 C-313.11243258 445.55201952 -286.62794857 501.98018683 -246 547 C-245.45907715 547.60263672 -244.9181543 548.20527344 -244.36083984 548.82617188 C-232.56289901 561.90701542 -219.96765294 574.2340005 -206 585 C-205.01918457 585.75700195 -205.01918457 585.75700195 -204.01855469 586.52929688 C-149.49832998 628.34033274 -83.92418451 653 -15 653 C-15 442.46 -15 231.92 -15 15 C-28.23522328 14.99594233 -28.23522328 14.99594233 -41.375 15.8125 Z " fill="#90856E" transform="translate(540,206)"/>
<path d="M0 0 C4.36748597 2.22091308 5.98349362 4.89385256 7.7734375 9.30859375 C8.20581055 12.92724609 8.20581055 12.92724609 8.28515625 16.89453125 C8.30310745 17.596315 8.32105865 18.29809875 8.33955383 19.02114868 C8.39332797 21.24190428 8.42744443 23.46244915 8.4609375 25.68359375 C8.49413987 27.19794579 8.52863221 28.71227013 8.56445312 30.2265625 C8.64903331 33.92037049 8.716001 37.61425254 8.7734375 41.30859375 C6.4634375 41.30859375 4.1534375 41.30859375 1.7734375 41.30859375 C1.2784375 36.35859375 1.2784375 36.35859375 0.7734375 31.30859375 C0.2165625 32.21609375 -0.3403125 33.12359375 -0.9140625 34.05859375 C-3.52827795 37.73262628 -6.18503928 40.28783214 -10.2265625 42.30859375 C-14.541374 42.74939964 -18.17340384 42.779154 -22.1640625 40.99609375 C-24.76344101 38.86932952 -26.07616209 37.15642615 -26.66796875 33.8203125 C-26.98410704 26.44715181 -26.98410704 26.44715181 -24.90625 23.32421875 C-18.83025192 17.82039986 -11.29756391 17.06144276 -3.484375 15.7734375 C-1.26736885 15.53273029 -1.26736885 15.53273029 -0.2265625 14.30859375 C0.27403666 11.89376962 0.27403666 11.89376962 -0.2265625 9.30859375 C-3.03759734 6.83829041 -5.0135417 6.33522135 -8.7265625 5.87109375 C-12.8239036 6.38326139 -14.33918953 7.42122078 -17.2265625 10.30859375 C-18.2165625 11.79359375 -18.2165625 11.79359375 -19.2265625 13.30859375 C-22.1965625 12.81359375 -22.1965625 12.81359375 -25.2265625 12.30859375 C-24.72086513 7.8837418 -23.32714358 5.49297432 -20.2265625 2.30859375 C-14.50594751 -1.83885212 -6.65160002 -2.06549685 0 0 Z " fill="#EDEDED" transform="translate(700.2265625,520.69140625)"/>
<path d="M0 0 C4.28066854 3.91375409 5.99490338 7.86842187 6.5090332 13.55859375 C6.62961231 17.70798477 6.53729136 21.85112704 6.4375 26 C6.41740336 27.45700669 6.39915818 28.91404015 6.3828125 30.37109375 C6.33906901 33.9146255 6.27021767 37.45713877 6.1875 41 C3.8775 41 1.5675 41 -0.8125 41 C-0.83231934 40.14245117 -0.85213867 39.28490234 -0.87255859 38.40136719 C-0.95079521 35.21052358 -1.03749343 32.0200526 -1.12988281 28.82958984 C-1.16809338 27.45044757 -1.20296002 26.07120833 -1.234375 24.69189453 C-1.28019624 22.70583033 -1.33916263 20.72008321 -1.3984375 18.734375 C-1.44556885 16.94338379 -1.44556885 16.94338379 -1.49365234 15.11621094 C-1.79516004 12.16946952 -2.17869547 10.44018251 -3.8125 8 C-7.03829243 6.38710379 -10.32445633 6.41084867 -13.8125 7 C-18.05866536 10.13847005 -19.53298338 12.97017605 -20.8125 18 C-21.18765729 21.95414322 -21.32018475 25.90583407 -21.4375 29.875 C-21.47617187 30.94492187 -21.51484375 32.01484375 -21.5546875 33.1171875 C-21.64852452 35.74462408 -21.73421557 38.37206171 -21.8125 41 C-24.1225 41 -26.4325 41 -28.8125 41 C-28.8125 27.47 -28.8125 13.94 -28.8125 0 C-26.8325 0 -24.8525 0 -22.8125 0 C-22.4825 3.63 -22.1525 7.26 -21.8125 11 C-21.27625 9.7625 -20.74 8.525 -20.1875 7.25 C-15.91503072 -1.14607203 -8.57534278 -3.04901077 0 0 Z " fill="#F1F1F1" transform="translate(798.8125,521)"/>
<path d="M0 0 C4.67604829 2.12227427 7.29441494 4.63179863 9.63671875 9.31640625 C9.63671875 10.63640625 9.63671875 11.95640625 9.63671875 13.31640625 C7.32671875 13.64640625 5.01671875 13.97640625 2.63671875 14.31640625 C2.22421875 13.36765625 1.81171875 12.41890625 1.38671875 11.44140625 C-0.07513291 8.36157236 -0.07513291 8.36157236 -2.11328125 6.94140625 C-5.42421151 6.0217034 -7.94030924 5.89604127 -11.36328125 6.31640625 C-15.47318163 9.42166431 -17.30308337 12.30456175 -18.36328125 17.31640625 C-18.94204647 23.06271807 -18.6601208 27.37114692 -15.36328125 32.31640625 C-13.46200147 34.51019062 -12.13097005 35.18677775 -9.28125 35.66796875 C-4.86612477 35.94620218 -2.96031209 35.77661752 0.63671875 33.00390625 C2.77480932 30.42327741 2.77480932 30.42327741 3.63671875 27.31640625 C5.61671875 27.31640625 7.59671875 27.31640625 9.63671875 27.31640625 C10.78761131 30.76908393 10.55599233 31.2042824 9.01171875 34.31640625 C7.11264314 37.88535868 5.44142719 39.69940516 1.63671875 41.31640625 C-3.93495976 42.97124239 -10.20778689 43.48336354 -15.71875 41.4453125 C-21.63026948 38.06254807 -24.22204208 33.74012375 -26.36328125 27.31640625 C-27.00191224 19.66330374 -27.27426099 12.57968476 -22.36328125 6.31640625 C-15.77191677 -0.37771892 -9.41509385 -2.72337425 0 0 Z " fill="#ECECEC" transform="translate(656.36328125,520.68359375)"/>
<path d="M0 0 C1 1 1 1 1.0625 4.5625 C1.041875 5.696875 1.02125 6.83125 1 8 C0.32453125 8.06316406 -0.3509375 8.12632812 -1.046875 8.19140625 C-6.2706396 8.77678822 -6.2706396 8.77678822 -10.51953125 11.55078125 C-13.19473109 16.2298761 -14.09041988 20.68983718 -14.31640625 25.984375 C-14.35830078 26.91894531 -14.40019531 27.85351562 -14.44335938 28.81640625 C-14.50233398 30.26853516 -14.50233398 30.26853516 -14.5625 31.75 C-14.62727539 33.22533203 -14.62727539 33.22533203 -14.69335938 34.73046875 C-14.79922052 37.15351275 -14.90130171 39.5766554 -15 42 C-17.31 42 -19.62 42 -22 42 C-22 28.47 -22 14.94 -22 1 C-20.02 1 -18.04 1 -16 1 C-15.67 4.63 -15.34 8.26 -15 12 C-14.4225 10.7625 -13.845 9.525 -13.25 8.25 C-9.91038329 1.68712953 -7.76460867 -0.73251025 0 0 Z " fill="#F4F4F4" transform="translate(761,520)"/>
<path d="M0 0 C2.31 0 4.62 0 7 0 C7 13.53 7 27.06 7 41 C4.69 41 2.38 41 0 41 C0 27.47 0 13.94 0 0 Z " fill="#F4F4F4" transform="translate(720,521)"/>
<path d="M0 0 C0.35773958 3.75626559 0.13556761 5.73929307 -1.625 9.125 C-5.20723634 13.46139136 -8.0193755 15.76501065 -13.6875 16.4375 C-17 16 -17 16 -18.9375 14.9375 C-20.63335287 11.84506242 -20.43060657 9.44485259 -20 6 C-16.91352834 2.92098358 -13.62205204 2.2122501 -9.4375 1.3125 C-8.30183594 1.06113281 -7.16617188 0.80976562 -5.99609375 0.55078125 C-3 0 -3 0 0 0 Z " fill="#222225" transform="translate(701,541)"/>
<path d="M0 0 C1 1 1 1 1.0625 4.5625 C1.041875 5.696875 1.02125 6.83125 1 8 C0.32453125 8.08636719 -0.3509375 8.17273438 -1.046875 8.26171875 C-6.8948887 9.0950144 -6.8948887 9.0950144 -11.5 12.5625 C-11.995 13.366875 -12.49 14.17125 -13 15 C-13.99 15.495 -13.99 15.495 -15 16 C-14.56343578 10.54294724 -13.34633494 7.3305511 -10 3 C-9.566875 2.38125 -9.13375 1.7625 -8.6875 1.125 C-5.90910061 -0.72726626 -3.22622995 -0.23898 0 0 Z " fill="#E7E7E7" transform="translate(761,520)"/>
<path d="M0 0 C3.0625 0.125 3.0625 0.125 5.0625 1.125 C5.0625 3.105 5.0625 5.085 5.0625 7.125 C2.29999964 8.50625018 0.11518901 8.31579306 -2.9375 8.125 C-3.5975 7.465 -4.2575 6.805 -4.9375 6.125 C-4.21240871 0.17925143 -4.21240871 0.17925143 0 0 Z " fill="#E6E6E6" transform="translate(722.9375,505.875)"/>
</svg>
